<mxfile host="app.diagrams.net" modified="2023-10-29T09:43:19.731Z" agent="Mozilla/5.0 (Windows NT 10.0; Win64; x64) AppleWebKit/537.36 (KHTML, like Gecko) Chrome/118.0.0.0 Safari/537.36" etag="tcExlt4kaR1ffv1WF6j8" version="22.0.8" type="device">
  <diagram name="Страница — 1" id="usxZZT594OQtJW--cxMW">
    <mxGraphModel dx="1302" dy="718" grid="1" gridSize="10" guides="1" tooltips="1" connect="1" arrows="1" fold="1" page="1" pageScale="1" pageWidth="827" pageHeight="1169" math="0" shadow="0">
      <root>
        <mxCell id="0" />
        <mxCell id="1" parent="0" />
        <mxCell id="c-T06Fxmv7lnYh-eD7hm-3" value="" style="edgeStyle=orthogonalEdgeStyle;rounded=0;orthogonalLoop=1;jettySize=auto;html=1;" edge="1" parent="1" source="c-T06Fxmv7lnYh-eD7hm-1" target="c-T06Fxmv7lnYh-eD7hm-2">
          <mxGeometry relative="1" as="geometry" />
        </mxCell>
        <mxCell id="c-T06Fxmv7lnYh-eD7hm-1" value="" style="ellipse;whiteSpace=wrap;html=1;aspect=fixed;" vertex="1" parent="1">
          <mxGeometry x="400" y="10" width="40" height="40" as="geometry" />
        </mxCell>
        <mxCell id="c-T06Fxmv7lnYh-eD7hm-5" value="" style="edgeStyle=orthogonalEdgeStyle;rounded=0;orthogonalLoop=1;jettySize=auto;html=1;" edge="1" parent="1" source="c-T06Fxmv7lnYh-eD7hm-2" target="c-T06Fxmv7lnYh-eD7hm-4">
          <mxGeometry relative="1" as="geometry" />
        </mxCell>
        <mxCell id="c-T06Fxmv7lnYh-eD7hm-2" value="Customers page is opened" style="whiteSpace=wrap;html=1;" vertex="1" parent="1">
          <mxGeometry x="387.5" y="80" width="65" height="50" as="geometry" />
        </mxCell>
        <mxCell id="c-T06Fxmv7lnYh-eD7hm-7" value="" style="edgeStyle=orthogonalEdgeStyle;rounded=0;orthogonalLoop=1;jettySize=auto;html=1;" edge="1" parent="1" source="c-T06Fxmv7lnYh-eD7hm-4" target="c-T06Fxmv7lnYh-eD7hm-6">
          <mxGeometry relative="1" as="geometry" />
        </mxCell>
        <mxCell id="c-T06Fxmv7lnYh-eD7hm-4" value="Customers page contains next subparagraphs in concepts view: List, Details, Edit" style="whiteSpace=wrap;html=1;" vertex="1" parent="1">
          <mxGeometry x="340" y="160" width="160" height="60" as="geometry" />
        </mxCell>
        <mxCell id="c-T06Fxmv7lnYh-eD7hm-9" value="" style="edgeStyle=orthogonalEdgeStyle;rounded=0;orthogonalLoop=1;jettySize=auto;html=1;" edge="1" parent="1" source="c-T06Fxmv7lnYh-eD7hm-6" target="c-T06Fxmv7lnYh-eD7hm-8">
          <mxGeometry relative="1" as="geometry" />
        </mxCell>
        <mxCell id="c-T06Fxmv7lnYh-eD7hm-6" value="Customers page have UI part according to the requirements" style="whiteSpace=wrap;html=1;" vertex="1" parent="1">
          <mxGeometry x="360" y="250" width="120" height="60" as="geometry" />
        </mxCell>
        <mxCell id="c-T06Fxmv7lnYh-eD7hm-11" value="" style="edgeStyle=orthogonalEdgeStyle;rounded=0;orthogonalLoop=1;jettySize=auto;html=1;" edge="1" parent="1" source="c-T06Fxmv7lnYh-eD7hm-17" target="c-T06Fxmv7lnYh-eD7hm-10">
          <mxGeometry relative="1" as="geometry" />
        </mxCell>
        <mxCell id="c-T06Fxmv7lnYh-eD7hm-22" value="" style="edgeStyle=orthogonalEdgeStyle;rounded=0;orthogonalLoop=1;jettySize=auto;html=1;" edge="1" parent="1" source="c-T06Fxmv7lnYh-eD7hm-23" target="c-T06Fxmv7lnYh-eD7hm-21">
          <mxGeometry relative="1" as="geometry" />
        </mxCell>
        <mxCell id="c-T06Fxmv7lnYh-eD7hm-8" value="User clicked &#39;Import&#39; or &#39;Export&#39; buttons?" style="rhombus;whiteSpace=wrap;html=1;" vertex="1" parent="1">
          <mxGeometry x="350" y="340" width="140" height="80" as="geometry" />
        </mxCell>
        <mxCell id="c-T06Fxmv7lnYh-eD7hm-28" value="" style="edgeStyle=orthogonalEdgeStyle;rounded=0;orthogonalLoop=1;jettySize=auto;html=1;" edge="1" parent="1" source="c-T06Fxmv7lnYh-eD7hm-10" target="c-T06Fxmv7lnYh-eD7hm-27">
          <mxGeometry relative="1" as="geometry" />
        </mxCell>
        <mxCell id="c-T06Fxmv7lnYh-eD7hm-10" value="Pop-up window with download/upload route is shown" style="whiteSpace=wrap;html=1;" vertex="1" parent="1">
          <mxGeometry x="140" y="350" width="120" height="60" as="geometry" />
        </mxCell>
        <mxCell id="c-T06Fxmv7lnYh-eD7hm-19" value="" style="edgeStyle=orthogonalEdgeStyle;rounded=0;orthogonalLoop=1;jettySize=auto;html=1;" edge="1" parent="1" source="c-T06Fxmv7lnYh-eD7hm-8" target="c-T06Fxmv7lnYh-eD7hm-17">
          <mxGeometry relative="1" as="geometry">
            <mxPoint x="350" y="380" as="sourcePoint" />
            <mxPoint x="260" y="380" as="targetPoint" />
          </mxGeometry>
        </mxCell>
        <mxCell id="c-T06Fxmv7lnYh-eD7hm-17" value="&lt;span style=&quot;color: rgb(0, 0, 0); font-family: Helvetica; font-size: 11px; font-style: normal; font-variant-ligatures: normal; font-variant-caps: normal; font-weight: 400; letter-spacing: normal; orphans: 2; text-align: center; text-indent: 0px; text-transform: none; widows: 2; word-spacing: 0px; -webkit-text-stroke-width: 0px; background-color: rgb(255, 255, 255); text-decoration-thickness: initial; text-decoration-style: initial; text-decoration-color: initial; float: none; display: inline !important;&quot;&gt;Yes&lt;/span&gt;" style="text;whiteSpace=wrap;html=1;" vertex="1" parent="1">
          <mxGeometry x="300" y="365" width="20" height="30" as="geometry" />
        </mxCell>
        <mxCell id="c-T06Fxmv7lnYh-eD7hm-26" value="" style="edgeStyle=orthogonalEdgeStyle;rounded=0;orthogonalLoop=1;jettySize=auto;html=1;" edge="1" parent="1" source="c-T06Fxmv7lnYh-eD7hm-21" target="c-T06Fxmv7lnYh-eD7hm-25">
          <mxGeometry relative="1" as="geometry" />
        </mxCell>
        <mxCell id="c-T06Fxmv7lnYh-eD7hm-21" value="Next paragraphs are shown in the list: All, Accepts Marketing, Prospect, Returning" style="whiteSpace=wrap;html=1;" vertex="1" parent="1">
          <mxGeometry x="360" y="480" width="120" height="60" as="geometry" />
        </mxCell>
        <mxCell id="c-T06Fxmv7lnYh-eD7hm-24" value="" style="edgeStyle=orthogonalEdgeStyle;rounded=0;orthogonalLoop=1;jettySize=auto;html=1;" edge="1" parent="1" source="c-T06Fxmv7lnYh-eD7hm-8" target="c-T06Fxmv7lnYh-eD7hm-23">
          <mxGeometry relative="1" as="geometry">
            <mxPoint x="420" y="420" as="sourcePoint" />
            <mxPoint x="420" y="470" as="targetPoint" />
          </mxGeometry>
        </mxCell>
        <mxCell id="c-T06Fxmv7lnYh-eD7hm-23" value="&lt;span style=&quot;color: rgb(0, 0, 0); font-family: Helvetica; font-size: 11px; font-style: normal; font-variant-ligatures: normal; font-variant-caps: normal; font-weight: 400; letter-spacing: normal; orphans: 2; text-align: center; text-indent: 0px; text-transform: none; widows: 2; word-spacing: 0px; -webkit-text-stroke-width: 0px; background-color: rgb(255, 255, 255); text-decoration-thickness: initial; text-decoration-style: initial; text-decoration-color: initial; float: none; display: inline !important;&quot;&gt;No&lt;/span&gt;" style="text;whiteSpace=wrap;html=1;" vertex="1" parent="1">
          <mxGeometry x="410" y="440" width="20" height="20" as="geometry" />
        </mxCell>
        <mxCell id="c-T06Fxmv7lnYh-eD7hm-30" value="" style="edgeStyle=orthogonalEdgeStyle;rounded=0;orthogonalLoop=1;jettySize=auto;html=1;" edge="1" parent="1" source="c-T06Fxmv7lnYh-eD7hm-25" target="c-T06Fxmv7lnYh-eD7hm-29">
          <mxGeometry relative="1" as="geometry" />
        </mxCell>
        <mxCell id="c-T06Fxmv7lnYh-eD7hm-25" value="Check that &#39;All&#39; is selected by default" style="whiteSpace=wrap;html=1;" vertex="1" parent="1">
          <mxGeometry x="360" y="580" width="120" height="60" as="geometry" />
        </mxCell>
        <mxCell id="c-T06Fxmv7lnYh-eD7hm-27" value="File with customer(s) can be uploaded or downloaded by selecting file and clicking OK button" style="whiteSpace=wrap;html=1;" vertex="1" parent="1">
          <mxGeometry x="140" y="460" width="120" height="80" as="geometry" />
        </mxCell>
        <mxCell id="c-T06Fxmv7lnYh-eD7hm-32" value="" style="edgeStyle=orthogonalEdgeStyle;rounded=0;orthogonalLoop=1;jettySize=auto;html=1;" edge="1" parent="1" source="c-T06Fxmv7lnYh-eD7hm-29" target="c-T06Fxmv7lnYh-eD7hm-31">
          <mxGeometry relative="1" as="geometry" />
        </mxCell>
        <mxCell id="c-T06Fxmv7lnYh-eD7hm-29" value="List of all customers are shown on the screen" style="whiteSpace=wrap;html=1;" vertex="1" parent="1">
          <mxGeometry x="360" y="680" width="120" height="60" as="geometry" />
        </mxCell>
        <mxCell id="c-T06Fxmv7lnYh-eD7hm-40" value="" style="edgeStyle=orthogonalEdgeStyle;rounded=0;orthogonalLoop=1;jettySize=auto;html=1;" edge="1" parent="1" source="c-T06Fxmv7lnYh-eD7hm-31" target="c-T06Fxmv7lnYh-eD7hm-39">
          <mxGeometry relative="1" as="geometry" />
        </mxCell>
        <mxCell id="c-T06Fxmv7lnYh-eD7hm-31" value="Select others paragraphs and check that relevant customers are shown" style="whiteSpace=wrap;html=1;" vertex="1" parent="1">
          <mxGeometry x="360" y="780" width="120" height="60" as="geometry" />
        </mxCell>
        <mxCell id="c-T06Fxmv7lnYh-eD7hm-42" value="" style="edgeStyle=orthogonalEdgeStyle;rounded=0;orthogonalLoop=1;jettySize=auto;html=1;" edge="1" parent="1" source="c-T06Fxmv7lnYh-eD7hm-39" target="c-T06Fxmv7lnYh-eD7hm-41">
          <mxGeometry relative="1" as="geometry" />
        </mxCell>
        <mxCell id="c-T06Fxmv7lnYh-eD7hm-44" value="" style="edgeStyle=orthogonalEdgeStyle;rounded=0;orthogonalLoop=1;jettySize=auto;html=1;" edge="1" parent="1" source="c-T06Fxmv7lnYh-eD7hm-39" target="c-T06Fxmv7lnYh-eD7hm-43">
          <mxGeometry relative="1" as="geometry" />
        </mxCell>
        <mxCell id="c-T06Fxmv7lnYh-eD7hm-39" value="Search customers field is empty?" style="rhombus;whiteSpace=wrap;html=1;" vertex="1" parent="1">
          <mxGeometry x="360" y="880" width="120" height="80" as="geometry" />
        </mxCell>
        <mxCell id="c-T06Fxmv7lnYh-eD7hm-41" value="All customers are shown" style="whiteSpace=wrap;html=1;" vertex="1" parent="1">
          <mxGeometry x="160" y="890" width="120" height="60" as="geometry" />
        </mxCell>
        <mxCell id="c-T06Fxmv7lnYh-eD7hm-52" value="" style="edgeStyle=orthogonalEdgeStyle;rounded=0;orthogonalLoop=1;jettySize=auto;html=1;" edge="1" parent="1" source="c-T06Fxmv7lnYh-eD7hm-43" target="c-T06Fxmv7lnYh-eD7hm-51">
          <mxGeometry relative="1" as="geometry" />
        </mxCell>
        <mxCell id="c-T06Fxmv7lnYh-eD7hm-55" value="" style="edgeStyle=orthogonalEdgeStyle;rounded=0;orthogonalLoop=1;jettySize=auto;html=1;" edge="1" parent="1" source="c-T06Fxmv7lnYh-eD7hm-43" target="c-T06Fxmv7lnYh-eD7hm-54">
          <mxGeometry relative="1" as="geometry" />
        </mxCell>
        <mxCell id="c-T06Fxmv7lnYh-eD7hm-43" value="Search customers field is filled with valid data?" style="rhombus;whiteSpace=wrap;html=1;" vertex="1" parent="1">
          <mxGeometry x="360" y="1000" width="120" height="80" as="geometry" />
        </mxCell>
        <mxCell id="c-T06Fxmv7lnYh-eD7hm-45" value="&lt;span style=&quot;color: rgb(0, 0, 0); font-family: Helvetica; font-size: 11px; font-style: normal; font-variant-ligatures: normal; font-variant-caps: normal; font-weight: 400; letter-spacing: normal; orphans: 2; text-align: center; text-indent: 0px; text-transform: none; widows: 2; word-spacing: 0px; -webkit-text-stroke-width: 0px; background-color: rgb(255, 255, 255); text-decoration-thickness: initial; text-decoration-style: initial; text-decoration-color: initial; float: none; display: inline !important;&quot;&gt;Yes&lt;/span&gt;" style="text;whiteSpace=wrap;html=1;" vertex="1" parent="1">
          <mxGeometry x="320" y="905" width="20" height="30" as="geometry" />
        </mxCell>
        <mxCell id="c-T06Fxmv7lnYh-eD7hm-47" value="&lt;span style=&quot;color: rgb(0, 0, 0); font-family: Helvetica; font-size: 11px; font-style: normal; font-variant-ligatures: normal; font-variant-caps: normal; font-weight: 400; letter-spacing: normal; orphans: 2; text-align: center; text-indent: 0px; text-transform: none; widows: 2; word-spacing: 0px; -webkit-text-stroke-width: 0px; background-color: rgb(255, 255, 255); text-decoration-thickness: initial; text-decoration-style: initial; text-decoration-color: initial; float: none; display: inline !important;&quot;&gt;No&lt;/span&gt;" style="text;whiteSpace=wrap;html=1;" vertex="1" parent="1">
          <mxGeometry x="410" y="960" width="20" height="30" as="geometry" />
        </mxCell>
        <mxCell id="c-T06Fxmv7lnYh-eD7hm-58" value="" style="edgeStyle=orthogonalEdgeStyle;rounded=0;orthogonalLoop=1;jettySize=auto;html=1;" edge="1" parent="1" source="c-T06Fxmv7lnYh-eD7hm-51" target="c-T06Fxmv7lnYh-eD7hm-57">
          <mxGeometry relative="1" as="geometry" />
        </mxCell>
        <mxCell id="c-T06Fxmv7lnYh-eD7hm-51" value="Relevant list of customers is shown" style="whiteSpace=wrap;html=1;" vertex="1" parent="1">
          <mxGeometry x="360" y="1120" width="120" height="60" as="geometry" />
        </mxCell>
        <mxCell id="c-T06Fxmv7lnYh-eD7hm-53" value="&lt;span style=&quot;color: rgb(0, 0, 0); font-family: Helvetica; font-size: 11px; font-style: normal; font-variant-ligatures: normal; font-variant-caps: normal; font-weight: 400; letter-spacing: normal; orphans: 2; text-align: center; text-indent: 0px; text-transform: none; widows: 2; word-spacing: 0px; -webkit-text-stroke-width: 0px; background-color: rgb(255, 255, 255); text-decoration-thickness: initial; text-decoration-style: initial; text-decoration-color: initial; float: none; display: inline !important;&quot;&gt;Yes&lt;/span&gt;" style="text;whiteSpace=wrap;html=1;" vertex="1" parent="1">
          <mxGeometry x="410" y="1080" width="20" height="30" as="geometry" />
        </mxCell>
        <mxCell id="c-T06Fxmv7lnYh-eD7hm-54" value="List of customers is empty" style="whiteSpace=wrap;html=1;" vertex="1" parent="1">
          <mxGeometry x="560" y="1010" width="100" height="60" as="geometry" />
        </mxCell>
        <mxCell id="c-T06Fxmv7lnYh-eD7hm-56" value="&lt;span style=&quot;color: rgb(0, 0, 0); font-family: Helvetica; font-size: 11px; font-style: normal; font-variant-ligatures: normal; font-variant-caps: normal; font-weight: 400; letter-spacing: normal; orphans: 2; text-align: center; text-indent: 0px; text-transform: none; widows: 2; word-spacing: 0px; -webkit-text-stroke-width: 0px; background-color: rgb(255, 255, 255); text-decoration-thickness: initial; text-decoration-style: initial; text-decoration-color: initial; float: none; display: inline !important;&quot;&gt;No&lt;/span&gt;" style="text;whiteSpace=wrap;html=1;" vertex="1" parent="1">
          <mxGeometry x="510" y="1025" width="20" height="30" as="geometry" />
        </mxCell>
        <mxCell id="c-T06Fxmv7lnYh-eD7hm-66" value="" style="edgeStyle=orthogonalEdgeStyle;rounded=0;orthogonalLoop=1;jettySize=auto;html=1;" edge="1" parent="1" source="c-T06Fxmv7lnYh-eD7hm-57" target="c-T06Fxmv7lnYh-eD7hm-65">
          <mxGeometry relative="1" as="geometry" />
        </mxCell>
        <mxCell id="c-T06Fxmv7lnYh-eD7hm-57" value="Check that &#39;Sort By&#39; button is sorted correctly" style="whiteSpace=wrap;html=1;" vertex="1" parent="1">
          <mxGeometry x="360" y="1220" width="120" height="60" as="geometry" />
        </mxCell>
        <mxCell id="c-T06Fxmv7lnYh-eD7hm-62" value="" style="edgeStyle=orthogonalEdgeStyle;rounded=0;orthogonalLoop=1;jettySize=auto;html=1;" edge="1" parent="1" target="c-T06Fxmv7lnYh-eD7hm-61">
          <mxGeometry relative="1" as="geometry">
            <mxPoint x="160" y="1800" as="sourcePoint" />
          </mxGeometry>
        </mxCell>
        <mxCell id="c-T06Fxmv7lnYh-eD7hm-68" value="" style="edgeStyle=orthogonalEdgeStyle;rounded=0;orthogonalLoop=1;jettySize=auto;html=1;" edge="1" parent="1" source="c-T06Fxmv7lnYh-eD7hm-65" target="c-T06Fxmv7lnYh-eD7hm-67">
          <mxGeometry relative="1" as="geometry" />
        </mxCell>
        <mxCell id="c-T06Fxmv7lnYh-eD7hm-65" value="Check that any user(s) can be selected, edited or deleted" style="whiteSpace=wrap;html=1;" vertex="1" parent="1">
          <mxGeometry x="360" y="1320" width="120" height="60" as="geometry" />
        </mxCell>
        <mxCell id="c-T06Fxmv7lnYh-eD7hm-70" value="" style="edgeStyle=orthogonalEdgeStyle;rounded=0;orthogonalLoop=1;jettySize=auto;html=1;" edge="1" parent="1" source="c-T06Fxmv7lnYh-eD7hm-67" target="c-T06Fxmv7lnYh-eD7hm-69">
          <mxGeometry relative="1" as="geometry" />
        </mxCell>
        <mxCell id="c-T06Fxmv7lnYh-eD7hm-67" value="Check that user can be added by clicking &#39;+ Add&#39; button" style="whiteSpace=wrap;html=1;" vertex="1" parent="1">
          <mxGeometry x="360" y="1420" width="120" height="60" as="geometry" />
        </mxCell>
        <mxCell id="c-T06Fxmv7lnYh-eD7hm-72" value="" style="edgeStyle=orthogonalEdgeStyle;rounded=0;orthogonalLoop=1;jettySize=auto;html=1;" edge="1" parent="1" source="c-T06Fxmv7lnYh-eD7hm-69" target="c-T06Fxmv7lnYh-eD7hm-71">
          <mxGeometry relative="1" as="geometry" />
        </mxCell>
        <mxCell id="c-T06Fxmv7lnYh-eD7hm-69" value="Check that Rows per page can be chosen between 5, 10 and 25 per page" style="whiteSpace=wrap;html=1;" vertex="1" parent="1">
          <mxGeometry x="360" y="1520" width="120" height="60" as="geometry" />
        </mxCell>
        <mxCell id="c-T06Fxmv7lnYh-eD7hm-71" value="Check that navigation between pages is present if next/previous pages are exist" style="whiteSpace=wrap;html=1;" vertex="1" parent="1">
          <mxGeometry x="340" y="1620" width="160" height="60" as="geometry" />
        </mxCell>
      </root>
    </mxGraphModel>
  </diagram>
</mxfile>
